<svg viewBox="0 0 1126.53 264.58"><g id="Layer_2" data-name="Layer 2"><g id="Layer_1-2" data-name="Layer 1"><path d="M25.73,136.47c0-13.64-1.25-31-1.25-41.18,0-1.49-.74-3.23-2.48-3.23s-2.73.25-4.71,2.73c-3,4-7.94,5.46-12.65,2.73A9.09,9.09,0,0,1,.92,85.61c6.2-13.89,16.87-21.08,30.26-21.08C55.5,64.53,61.7,80.65,61.7,99c0,17.37-3.72,35-3.72,64.75a8.78,8.78,0,0,0,8.68,8.69c16.13,0,33.49-21.09,33.49-81.87a12.41,12.41,0,0,1,24.81-.7v.7C125,165,98.91,201,58,201c-19.11,0-33.5-15.63-33.5-34.74C24.48,157.56,25.73,148.89,25.73,136.47Zm17.11-129a21.09,21.09,0,1,1-21.08,21.1h0a21.07,21.07,0,0,1,21-21.1h0Z" style="fill: rgb(255, 255, 255);"></path><path d="M214.27,201a34.84,34.84,0,0,1-34.73-34.74c0-14.88,2.48-29.77,2.48-54.58,0-8.43-4-16.12-16.13-16.12-15.38,0-33.49,8.43-33.49,33.49,0,19.6,1.24,40.94,1.24,52.1a17.37,17.37,0,1,1-34.73.84q0-.42,0-.84c0-11.16,1.24-32.25,1.24-44.66V83.13a16.13,16.13,0,0,1,32.25,0,58.42,58.42,0,0,1,42.18-18.6c37.71,0,42.17,28.77,42.17,39.69,0,19.85-2.48,29.77-2.48,59.54a8.78,8.78,0,0,0,8.68,8.69c16.13,0,33.5-21.09,33.5-81.87a12.41,12.41,0,0,1,24.81-.7v.7C281.26,165,255.21,201,214.27,201Z" style="fill: rgb(255, 255, 255);"></path><path d="M307.3,201c-13.65,0-22.83-7.2-26.05-24.81-7.44-40.44-16.37-54.33-24.56-84.11a19.69,19.69,0,0,1,13.7-24.25l.19-.06c10.67-3,22.08,3.23,24.31,13.89,7.45,33.74,8.19,52.35,20.1,89.57,17.86-7.45,29.52-33.5,29.52-47.14-7.19-11.41-11.16-25.31-11.16-37.22a19.83,19.83,0,0,1,37-9.92c5.45,9.43,8.93,20.1,8.93,38.45a59.67,59.67,0,0,1-.5,7c10.42,3,22.82-1.49,25.06-11.91a10.08,10.08,0,0,1,11.93-7.8l.47.11a10.36,10.36,0,0,1,7.33,12.69c0,.15-.08.31-.13.46a42.74,42.74,0,0,1-51.34,30.27C358.9,175.67,330.37,201,307.3,201Z" style="fill: rgb(255, 255, 255);"></path><path d="M531.1,154.58c-9.18,32.5-36,46.4-66.24,46.4-37.71,0-64.5-23.57-64.5-64.51,0-50.61,32.25-69.46,62-69.46A10.41,10.41,0,0,1,471.79,74a39.8,39.8,0,0,1,11.66-2c28.28,0,50.61,22.08,50.86,56.56,22.08-7.19,26-25.3,26-37.95a12.41,12.41,0,0,1,24.81-.7v.7C585.16,123.32,563.57,148.13,531.1,154.58Zm-35.23.5c-35-6-47.13-29.28-47.13-49.62a34.66,34.66,0,0,1,3.47-15.63c-10.92,7.2-17.12,25.8-17.12,45.4,0,25.06,13.65,39.7,32.25,39.7,14.36,0,23.76-7.2,28.5-19.85Zm3.73-24.56v-.25c0-23.82-5-34.73-16.13-34.73-4,0-8.68,3-8.68,9.92,0,9.43,6.91,21.34,24.78,25.06Z" style="fill: rgb(255, 255, 255);"></path><path d="M579,7.46a21.09,21.09,0,1,1-21.09,21.09h0a21.07,21.07,0,0,1,21-21.09Zm15.15,156.3a8.78,8.78,0,0,0,8.69,8.69c14.88,0,26-18.61,26-36a9.92,9.92,0,0,1,19.84,0v0c0,28.29-19.84,64.51-54.58,64.51-19.1,0-33.49-15.63-33.49-34.74,0-8.68,1.24-17.36,1.24-29.77,0-21.09-2.48-53.34-2.48-53.34a18.61,18.61,0,0,1,37.21,0C596.56,115.38,594.1,134,594.1,163.76Z" style="fill: rgb(255, 255, 255);"></path><path d="M695.8,64.53c16.62,0,27.53,5,34.23,10.91,3.72,3.23,4.72,7.2,4.72,11.41,0,8.94-6.7,16.87-18.36,16.87-7,0-10.67-9.42-20.59-9.42-17.37,0-32.26,12.4-32.26,42.17,0,22.33,14.89,37.22,38.46,37.22,33.49,0,48.38-24.81,48.38-37.22a9.92,9.92,0,0,1,19.84,0v0c0,24.81-17.36,64.51-74.42,64.51-42.18,0-67-28.78-67-64.51C628.81,91.07,656.6,64.53,695.8,64.53Z" style="fill: rgb(255, 255, 255);"></path><path d="M869.46,109.18c0,20.1-16.38,43.91-59.55,43.91a187,187,0,0,1-22.57-1.24c5,14.64,17.86,21.84,35,21.84,49.62,0,76.91-24.81,76.91-83.11a12.41,12.41,0,0,1,24.81-.7v.7c0,75.66-39.7,110.4-101.72,110.4-42.18,0-72-28.78-72-64.51,0-45.4,27.79-71.94,67-71.94C849.61,64.53,869.46,82.14,869.46,109.18Zm-84.11,20.59a122.5,122.5,0,0,0,19.6,1.49c18.86,0,27.29-10.67,27.29-22.08A14.94,14.94,0,0,0,817.36,94.3c-16.13,0-30,10.66-32,35.47Z" style="fill: rgb(255, 255, 255);"></path><path d="M973.65,90.58a12.41,12.41,0,0,1,24.81-.7v.7c0,74.42-26,110.4-67,110.4-19.1,0-33.49-15.63-33.49-34.74,0-7.44,1.24-22.32,1.24-29.77,0-71.94-2.48-96.75-2.48-117.84a18.61,18.61,0,1,1,37.22,0v0c0,21.09-2.49,43.41-2.49,145.13a8.78,8.78,0,0,0,8.69,8.69C956.28,172.45,973.65,151.36,973.65,90.58Z" style="fill: rgb(255, 255, 255);"></path><path d="M1060,170c-6.45,7.92-22.33,14.92-42.88,14.92-29.77,0-43.41-21.09-43.41-48.38,0-21.09-2.48-37.21-2.48-50.86a18.61,18.61,0,0,1,37.21,0c0,13.65-2.48,33.5-2.48,48.38,0,12.41,5,22.33,19.85,22.33,22.57,0,32.25-13.65,32.25-26.05,0-14.89-2.48-31-2.48-44.66a18.61,18.61,0,0,1,37.21,0c0,13.65-2.48,29.77-2.48,50.86V141a238.37,238.37,0,0,0,3,33c4.46-2.48,8.93-7.19,14.63-15.38a9.87,9.87,0,0,1,12.66-3.47c5,2.73,7.44,7.44,5,13.4a51.4,51.4,0,0,1-29.28,28.78,32.16,32.16,0,0,1,.25,5c0,28.53-9.43,62.27-62,62.27-39.7,0-50.86-17.62-50.86-37.46,0-31.51,39.94-33.74,77.65-43.42Zm2.73,36.46c-28,5.46-45.65,7.7-45.65,20.6,0,5.7,4.22,12.4,17.37,12.4,22.33,0,29-13.64,28.53-28.53,0-1.49-.25-3-.25-4.47Z" style="fill: rgb(255, 255, 255);"></path></g></g></svg>